<?xml version="1.0" encoding="UTF-8"?>
<svg width="841px" height="442px" viewBox="0 0 841 442" version="1.1" xmlns="http://www.w3.org/2000/svg" xmlns:xlink="http://www.w3.org/1999/xlink">
    <title>Logo</title>
    <g id="Logos" stroke="none" stroke-width="1" fill="none" fill-rule="evenodd">
        <g id="Logos-/-KayoSportsLogoNegative" transform="translate(-60.000000, -49.000000)" fill-rule="nonzero">
            <g id="Group-2" transform="translate(60.000000, 49.000000)">
                <polygon id="Path" fill="#FFFFFF" points="460.501637 442 0 442 12.6523056 339.53335 473.153943 339.53335"></polygon>
                <path d="M565.603683,341.666 L604.161501,66.75305 L573.215096,66.75305 L533.633521,349.0695 C531.407962,363.82125 513.703636,376.9597 498.258253,373.1585 L493.996307,403.767 C543.581772,408.17595 560.930008,372.99275 565.603683,341.666 Z" id="Path" fill="#15E36D"></path>
                <polygon id="Path" fill="#15E36D" points="134.412664 178.4575 195.214949 307.7425 228.820897 307.7425 156.089613 152.2911"></polygon>
                <polygon id="Path" fill="#15E36D" points="153.741648 307.7425 187.191807 307.7425 129.605456 184.1593 108.06204 210.51355"></polygon>
                <polygon id="Path" fill="#15E36D" points="55.7502646 307.7425 86.5965188 307.7425 100.528521 208.9334 273.365469 0 233.105099 0 71.1288805 197.07675"></polygon>
                <polygon id="Path" fill="#15E36D" points="224.4588 0 184.632413 0 118.856003 79.76995 130.061695 0 99.0151407 0 73.1763953 183.2753"></polygon>
                <path d="M641.817967,66.75305 L610.804796,66.75305 L573.081563,335.40065 C568.69721,372.30765 551.627169,415.82255 492.961422,410.5959 L488.766242,440.97235 C575.885768,446.2653 597.406928,383.37975 601.156995,353.78785 L641.817967,66.75305 Z" id="Path" fill="#15E36D"></path>
                <path d="M759.661341,59.9131 C685.973067,59.9131 659.88951,118.4781 656.172825,147.81585 L644.555405,232.28205 C640.961126,258.44845 653.201703,316.03 725.921859,316.03 C780.359044,316.03 821.765577,280.67 828.954134,228.1383 L840.148699,148.36835 C844.866885,115.7377 831.569167,59.9131 759.661341,59.9131 Z M797.70728,233.96165 C796.950589,238.8568 786.713016,288.8028 728.369974,288.8028 C681.922548,288.8028 672.730988,248.1167 674.68948,230.00575 C675.457298,222.97795 686.395923,143.66105 687.77577,137.09735 C689.756518,127.6054 706.103252,87.737 752.695339,87.737 C813.308451,87.737 810.882592,141.09745 809.847706,149.7054 C809.157783,155.363 798.419459,229.3317 797.70728,233.96165 L797.70728,233.96165 Z" id="Shape" fill="#15E36D"></path>
                <polygon id="Path" fill="#15E36D" points="397.062064 66.8083 365.91536 66.8083 332.365051 307.7204 362.977621 307.7204"></polygon>
                <path d="M295.754598,226.7902 C295.865875,224.08295 296.29986,221.2652 296.689332,218.46955 L298.914892,202.3255 L304.022551,165.67265 L305.669465,153.87125 C311.778626,126.77665 340.888943,122.00305 349.891332,133.80445 L354.34245,102.24565 C354.34245,102.24565 346.452842,99.4279 333.266402,99.4279 C310.009306,99.4279 281.511017,118.95325 277.749821,145.8379 L266.132401,228.8455 C263.906842,250.3709 277.260198,272.3825 308.11758,274.64775 C315.828339,275.147815 323.551264,273.873441 330.684753,270.9239 L334.924444,240.3817 C328.481449,245.18845 320.313646,249.14435 312.012309,247.741 C306.442386,246.76631 301.560441,243.467383 298.603314,238.68 C296.41642,235.113565 295.419452,230.95248 295.754598,226.7902 Z" id="Path" fill="#15E36D"></path>
                <path d="M259.277678,229.07755 L270.828331,146.37935 C277.96125,103.28435 322.694995,84.6209 355.321697,94.95265 L359.316576,66.8304 C277.760949,55.0511 245.490337,109.82595 241.840419,146.1915 L230.345405,227.81785 C226.895788,253.045 237.600729,318.71515 325.410177,308.48285 L329.594229,278.38265 C295.999409,289.51 254.615131,269.47635 259.277678,229.07755 Z" id="Path" fill="#15E36D"></path>
                <path d="M496.833895,66.79725 L473.688077,228.8455 C471.462517,250.3709 484.815874,272.3825 515.662128,274.64775 C523.372887,275.147815 531.095812,273.873441 538.229301,270.9239 L542.48012,240.3817 C534.690662,246.2161 523.974593,250.8792 514.449198,246.16085 C509.07958,243.439747 505.147615,238.557139 503.655235,232.7572 C502.542455,228.48085 503.410424,224.48075 504.022452,220.23755 L506.35929,203.8062 L513.547847,153.47345 L521.137005,100.21245 L525.666018,68.49895 L525.91083,66.79725 L496.833895,66.79725 Z" id="Path" fill="#15E36D"></path>
                <path d="M460.79096,66.8304 L437.945592,227.81785 C434.484847,253.045 445.200916,318.71515 532.999237,308.48285 L537.183288,278.38265 C503.57734,289.52105 462.170807,269.4432 466.855609,229.0444 L489.801127,66.79725 L460.79096,66.8304 Z" id="Path" fill="#15E36D"></path>
                <path d="M752.851129,94.5217 C710.454221,94.5217 696.099362,131.59445 694.307787,138.8985 C692.761023,145.20805 681.889165,225.0222 681.377286,232.03895 C680.264507,246.9896 687.720131,282.02915 729.549521,282.02915 C770.722371,282.02915 788.938575,250.7466 791.54248,232.6246 C792.187892,228.1383 802.915089,155.10885 803.538245,149.34075 C804.161402,143.57265 807.477486,94.5217 752.851129,94.5217 Z M732.743199,252.32675 C716.941727,252.32675 710.61001,238.40375 711.92309,227.63 L722.750437,150.28 C725.076146,136.08075 739.15281,123.61635 752.862256,123.61635 C769.76538,123.61635 775.685369,139.08635 773.715749,148.1584 L762.843891,225.71835 C760.963293,239.66345 746.608434,252.32675 732.743199,252.32675 Z" id="Shape" fill="#15E36D"></path>
                <polygon id="Path" fill="#15E36D" points="61.4699525 0 18.33861 307.7425 49.1514808 307.7425 92.5276348 0"></polygon>
                <polygon id="Path" fill="#15E36D" points="434.540486 66.8083 403.404909 66.8083 369.8546 307.7204 400.456043 307.7204"></polygon>
                <path d="M68.5472316,374.78285 C64.8294996,370.564066 59.5517854,368.017388 53.9141781,367.7219 C49.2405032,367.7219 44.5557005,369.733 44.5557005,374.78285 C44.5557005,384.06485 71.6963982,381.8438 71.6963982,400.61775 C71.6963982,419.3917 54.5262069,426.242701 42.2856299,426.242701 C33.4090905,426.244954 24.9918274,422.324922 19.3178562,415.5463 L28.9322731,403.64545 C32.5933184,408.48535 39.3033802,412.48545 45.189985,412.48545 C51.0765898,412.48545 55.3496639,409.45775 55.3496639,404.41895 C55.3496639,394.7281 28.331372,397.5569 28.331372,379.1918 C28.331372,362.6168 40.7277382,354.36245 56.3734213,354.36245 C70.1941456,354.36245 77.0043575,363.1472 77.0043575,363.1472 L68.5472316,374.78285 Z" id="Path" fill="#000A00"></path>
                <path d="M119.890888,399.3028 L111.667446,399.3028 L107.6058,425.03825 L91.6485388,425.03825 L102.720697,355.42325 L126.912529,355.42325 C138.396415,355.42325 148.455944,359.95375 148.455944,372.8712 C148.455944,390.31915 136.660479,399.40225 119.890888,399.3028 Z M122.639454,368.1197 L116.541421,368.1197 L113.592555,386.58425 L119.690588,386.58425 C126.812378,386.58425 132.098082,383.0593 132.098082,375.53425 C132.098082,369.63355 127.624708,368.1197 122.639454,368.1197 Z" id="Shape" fill="#000A00"></path>
                <path d="M195.637805,426.2427 C177.833329,426.2427 165.04749,415.44685 165.04749,397.28065 C165.04749,372.97065 182.429109,354.29615 207.121692,354.29615 C225.004062,354.29615 237.712007,365.092 237.712007,383.35765 C237.712007,407.57925 220.330387,426.2427 195.637805,426.2427 Z M204.885004,368.32965 C190.76383,368.32965 181.51663,381.1366 181.51663,394.3524 C181.51663,404.4521 187.714813,411.51305 197.974642,411.51305 C212.207095,411.51305 221.454295,398.69505 221.454295,385.47925 C221.443167,375.3906 215.256112,368.32965 204.885004,368.32965 L204.885004,368.32965 Z" id="Shape" fill="#000A00"></path>
                <path d="M296.989783,396.2751 L309.597577,425.0051 L290.9919,425.0051 L281.043649,398.4851 L276.158546,398.4851 L271.99675,425.0051 L256.039489,425.0051 L267.167286,355.3901 L291.34799,355.3901 C302.831877,355.3901 313.703735,359.5228 313.703735,372.63915 C313.659223,383.0593 307.127206,393.14795 296.989783,396.2751 Z M287.097171,368.1197 L280.898988,368.1197 L278.16155,385.7997 L284.359733,385.7997 C291.270095,385.7997 297.257008,382.98195 297.257008,375.20275 C297.290234,369.23575 292.015658,368.1197 287.097171,368.1197 Z" id="Shape" fill="#000A00"></path>
                <polygon id="Path" fill="#000A00" points="386.045545 355.4122 384.009158 368.52855 366.638667 368.52855 357.591767 425.03825 341.623378 425.03825 350.65915 368.52855 333.188508 368.52855 335.313917 355.4122"></polygon>
                <path d="M443.398213,374.78285 C439.680481,370.564066 434.402766,368.017388 428.765159,367.7219 C424.091484,367.7219 419.406681,369.733 419.406681,374.78285 C419.406681,384.06485 446.547379,381.8438 446.547379,400.61775 C446.547379,419.3917 429.377188,426.242701 417.181122,426.242701 C408.304583,426.244954 399.88732,422.324922 394.213348,415.5463 L403.760998,403.64545 C407.422044,408.48535 414.132106,412.48545 420.01871,412.48545 C425.905315,412.48545 430.178389,409.45775 430.178389,404.41895 C430.178389,394.7281 403.160097,397.5569 403.160097,379.1918 C403.160097,362.6168 415.556464,354.36245 431.202147,354.36245 C445.022871,354.36245 451.833083,363.1472 451.833083,363.1472 L443.398213,374.78285 Z" id="Path" fill="#000A00"></path>
            </g>
        </g>
    </g>
</svg>